<svg width="60" height="60" viewBox="0 0 60 60" fill="none" xmlns="http://www.w3.org/2000/svg">
<circle cx="25.6178" cy="5.8326" r="5.8326" fill="black"/>
<path d="M52.281 8.33226L6.45344 21.664C3.95372 22.4972 4.787 24.1636 8.11991 23.3304L22.2848 19.9975L23.9513 57.5499C23.9513 60.8829 26.2366 60.7684 26.451 57.4927C26.8154 51.9221 28.3317 40.8854 28.3317 40.8854C28.3317 40.8854 30.6171 41.6614 33.95 39.9949C37.5606 37.7729 41.1158 33.6625 43.1155 31.6627C44.782 29.9962 43.9487 29.163 42.2823 29.9962L33.95 34.9956C30.6171 36.662 29.9969 35.8288 29.9969 33.3291L30.8301 20.8307L53.1142 11.6652C55.6139 10.832 58.1136 6.66584 52.281 8.33226Z" fill="black"/>
</svg>
