<svg width="74" height="22" viewBox="0 0 74 22" fill="none" xmlns="http://www.w3.org/2000/svg">
<circle cx="7.55988" cy="2.13862" r="2.13862" fill="white"/>
<path d="M17.3364 3.05515L0.532926 7.94345C-0.383637 8.24897 -0.0781012 8.85998 1.14397 8.55446L6.33776 7.3324L6.9488 21.1016C6.9488 22.3237 7.78676 22.2818 7.86535 21.0807C7.99899 19.0381 8.55496 14.9913 8.55496 14.9913C8.55496 14.9913 9.39293 15.2758 10.615 14.6648C11.9389 13.8501 13.2424 12.3429 13.9757 11.6097C14.5867 10.9986 14.2812 10.6931 13.6702 10.9986L10.615 12.8317C9.39293 13.4427 9.16551 13.1372 9.16551 12.2207L9.47103 7.63791L17.6419 4.27722C18.5584 3.97171 19.475 2.44413 17.3364 3.05515Z" fill="white"/>
<path d="M23.4239 7.32V6.2H27.8059V7.32H23.4239ZM23.4239 11.24V10.12H27.6659V11.24H23.4239ZM22.7659 6.2H23.9559V16H22.7659V6.2ZM31.5159 11.17H32.8459L36.3459 16H34.8759L31.5159 11.17ZM29.7659 6.2H30.9559V16H29.7659V6.2ZM30.4239 7.25V6.2H32.4259C33.0605 6.2 33.6252 6.32133 34.1199 6.564C34.6239 6.79733 35.0205 7.13333 35.3099 7.572C35.6085 8.01067 35.7579 8.53333 35.7579 9.14C35.7579 9.73733 35.6085 10.26 35.3099 10.708C35.0205 11.1467 34.6239 11.4873 34.1199 11.73C33.6252 11.9633 33.0605 12.08 32.4259 12.08H30.4239V11.03H32.4259C32.8459 11.03 33.2145 10.9553 33.5319 10.806C33.8585 10.6567 34.1105 10.442 34.2879 10.162C34.4745 9.882 34.5679 9.54133 34.5679 9.14C34.5679 8.73867 34.4745 8.398 34.2879 8.118C34.1105 7.838 33.8585 7.62333 33.5319 7.474C33.2145 7.32467 32.8459 7.25 32.4259 7.25H30.4239ZM37.5999 6.2H38.7899V16H37.5999V6.2ZM42.3895 9.378L41.6615 16H40.4715L41.6615 5.71L45.5815 12.808L49.5015 5.71L50.6915 16H49.5015L48.7735 9.378L45.5815 15.09L42.3895 9.378ZM53.0235 16V14.88H57.9655V16H53.0235ZM53.0235 7.32V6.2H57.9655V7.32H53.0235ZM53.0235 11.24V10.12H57.6855V11.24H53.0235ZM52.3655 6.2H53.5555V16H52.3655V6.2ZM60.7207 16V14.88H65.6627V16H60.7207ZM60.7207 7.32V6.2H65.6627V7.32H60.7207ZM60.7207 11.24V10.12H65.3827V11.24H60.7207ZM60.0627 6.2H61.2527V16H60.0627V6.2ZM66.78 7.32V6.2H73.01V7.32H70.49V16H69.3V7.32H66.78Z" fill="white"/>
</svg>
