<?xml version="1.0" standalone="no"?>
<!DOCTYPE svg PUBLIC "-//W3C//DTD SVG 20010904//EN"
 "http://www.w3.org/TR/2001/REC-SVG-20010904/DTD/svg10.dtd">
<svg version="1.0" xmlns="http://www.w3.org/2000/svg"
 width="500.000000pt" height="500.000000pt" viewBox="0 0 500.000000 500.000000"
 preserveAspectRatio="xMidYMid meet">
<metadata>
Created by potrace 1.16, written by Peter Selinger 2001-2019
</metadata>
<g transform="translate(0.000000,500.000000) scale(0.100000,-0.100000)"
fill="#000000" stroke="none">
<path d="M2272 4600 c-193 -24 -493 -113 -657 -194 -409 -203 -737 -502 -944
-861 -167 -288 -263 -593 -292 -926 -30 -340 59 -784 220 -1094 59 -115 191
-322 233 -365 13 -14 56 -62 96 -107 131 -147 367 -331 582 -452 93 -53 281
-129 420 -170 314 -91 656 -110 975 -51 565 103 1102 458 1420 940 94 142 130
210 191 363 117 291 161 536 151 851 -8 263 -49 458 -153 724 -223 571 -729
1046 -1327 1244 -239 79 -360 99 -622 103 -121 2 -253 -1 -293 -5z m-4 -145
c2 -1 -6 -18 -17 -36 l-21 -34 0 28 c0 16 4 26 9 22 5 -3 12 -1 16 5 3 6 -3
10 -16 10 -20 0 -21 -3 -14 -52 4 -29 8 -60 10 -68 1 -8 12 -37 24 -63 22 -47
22 -85 1 -72 -5 3 -10 -1 -10 -9 0 -8 4 -17 9 -20 5 -4 9 -25 9 -49 1 -23 5
-53 10 -67 7 -19 9 -11 8 39 -1 49 3 65 14 69 8 3 12 1 8 -3 -8 -9 22 -65 34
-65 4 0 8 -13 8 -30 0 -31 -14 -41 -23 -16 -3 7 0 19 6 26 9 10 9 11 -2 5 -9
-5 -12 -4 -7 4 7 11 -20 28 -30 19 -10 -10 9 -89 20 -85 6 3 11 -6 11 -18 0
-13 -3 -21 -7 -18 -5 2 -8 -9 -8 -26 0 -16 -3 -36 -6 -45 -5 -13 2 -16 41 -16
26 0 44 4 40 9 -3 6 49 8 135 6 103 -3 139 -1 134 7 -5 8 0 9 17 5 13 -4 31
-7 39 -7 13 0 13 -1 0 -10 -12 -8 -11 -10 7 -10 26 0 37 15 37 50 1 14 5 31
10 39 5 7 9 48 10 90 1 42 6 83 10 89 11 18 15 82 5 82 -5 0 -9 -4 -9 -10 0
-5 -6 -10 -12 -10 -7 0 0 12 15 26 21 19 27 32 22 48 -3 11 -7 31 -9 44 -3 17
0 20 10 11 10 -8 13 -6 12 8 -1 10 2 28 6 40 6 18 4 22 -8 17 -11 -4 -16 0
-16 14 0 53 63 53 241 2 316 -90 635 -272 881 -501 96 -89 223 -240 304 -359
50 -73 146 -259 141 -273 -2 -6 2 -19 10 -29 11 -12 11 -18 2 -24 -7 -4 -10
-3 -5 4 3 6 -3 16 -14 22 -16 8 -27 7 -50 -6 -16 -10 -27 -20 -25 -23 2 -3 -9
-7 -23 -8 -15 0 -28 -6 -30 -12 -2 -5 -10 -7 -19 -4 -12 5 -14 3 -8 -7 5 -8 4
-11 -3 -7 -15 10 -44 -4 -38 -18 3 -8 -4 -12 -17 -11 -25 2 -128 -39 -138 -55
-3 -6 -9 -10 -13 -10 -25 4 -36 0 -30 -11 4 -7 3 -8 -4 -4 -11 7 -92 -29 -103
-46 -8 -13 2 -69 11 -63 5 3 12 -15 15 -40 4 -25 12 -45 17 -45 6 0 7 -7 4
-16 -3 -9 -3 -21 1 -27 4 -7 8 -14 9 -17 0 -3 4 -26 8 -53 9 -52 20 -65 40
-48 11 9 14 8 12 -6 -1 -15 6 -18 39 -17 90 4 200 16 205 24 3 5 23 8 45 8 68
-1 176 12 196 22 11 6 16 17 13 28 -3 9 1 7 8 -6 17 -27 28 -19 28 20 0 27 -8
33 -40 28 -12 -2 -12 2 3 17 15 18 16 27 6 74 -6 30 -15 62 -20 72 -6 10 -7
26 -4 36 5 18 -18 37 -38 32 -5 -1 -6 3 -2 9 3 6 11 7 17 4 7 -4 7 0 0 13 -6
10 -7 25 -3 32 5 8 14 -5 25 -39 9 -29 15 -55 12 -57 -3 -3 1 -17 8 -32 12
-23 19 -50 32 -126 2 -11 9 -40 14 -65 24 -99 32 -183 32 -345 0 -647 -294
-1216 -831 -1608 -337 -247 -711 -377 -1131 -394 -319 -13 -661 60 -952 204
-146 72 -237 127 -337 207 -36 28 -77 59 -91 68 -59 38 -244 233 -328 345
-104 140 -143 206 -214 365 -46 104 -110 280 -106 296 1 4 -4 20 -10 35 -23
56 -9 92 22 58 11 -13 14 -21 7 -26 -14 -8 -14 -52 -1 -60 6 -3 10 3 10 14 0
11 5 23 10 26 6 4 10 -7 10 -24 0 -17 5 -31 11 -31 5 0 7 -5 4 -10 -5 -8 -11
-8 -20 0 -9 8 -14 7 -18 -4 -3 -8 -1 -16 4 -18 6 -2 11 -20 12 -40 0 -21 5
-34 11 -31 5 3 6 2 3 -3 -3 -6 -1 -16 4 -24 8 -11 9 -7 7 17 -3 18 0 29 5 26
5 -3 6 -24 4 -46 -5 -43 4 -60 41 -71 12 -4 20 -12 16 -17 -3 -5 -10 -7 -15
-4 -5 4 -9 2 -9 -4 0 -5 5 -13 10 -16 6 -3 10 -11 10 -16 0 -6 -5 -7 -12 -3
-7 4 -8 3 -4 -4 4 -6 14 -8 23 -5 12 5 15 2 11 -8 -5 -13 2 -13 47 -4 30 6 57
13 60 17 4 4 -4 4 -17 1 -12 -3 -20 -3 -16 1 3 4 23 9 45 10 21 2 37 7 36 13
-1 6 6 9 16 6 12 -3 20 2 24 16 3 12 1 21 -4 21 -5 0 -9 5 -9 12 0 6 9 3 20
-7 16 -14 17 -20 8 -27 -7 -4 -8 -8 -3 -8 6 0 17 6 24 13 6 6 16 13 22 13 5 1
14 2 20 3 5 0 7 6 4 11 -3 6 -1 10 5 10 6 0 9 4 5 9 -3 5 -1 12 4 16 6 3 8 -3
6 -14 -3 -19 -2 -19 43 1 26 12 50 25 53 31 4 5 11 7 17 3 5 -3 13 1 16 10 4
10 2 13 -6 8 -7 -4 -8 -3 -4 4 5 8 13 9 26 2 13 -7 21 -6 29 4 9 11 9 15 -1
19 -8 4 -9 8 -3 14 30 24 36 41 24 67 -7 14 -15 26 -18 26 -4 0 -8 10 -8 22
-1 13 -7 24 -13 26 -5 2 -8 7 -5 12 7 11 -15 70 -26 70 -5 0 -9 5 -9 11 0 5 5
7 10 4 12 -7 4 37 -11 66 -5 9 -5 20 -1 24 4 4 -6 4 -23 1 -16 -4 -55 -10 -86
-15 -88 -15 -370 -81 -412 -97 -21 -8 -43 -12 -48 -9 -5 4 -9 1 -9 -6 0 -35
-12 9 -26 92 -24 154 -29 385 -10 523 16 121 28 155 46 126 6 -8 7 -22 4 -30
-3 -8 -2 -11 2 -7 4 4 13 2 20 -4 10 -8 69 -8 122 1 1 0 0 12 -3 28 -5 24 -5
25 4 5 6 -14 16 -20 24 -17 8 3 21 -2 30 -10 8 -8 18 -12 22 -8 5 4 5 1 1 -5
-4 -7 -14 -13 -22 -13 -8 0 -13 4 -9 9 6 11 -41 8 -52 -2 -7 -8 25 -10 122 -9
39 1 63 -1 55 -5 -8 -4 20 -12 65 -19 52 -9 83 -9 91 -3 8 7 13 6 16 -2 2 -7
12 -9 26 -5 12 4 19 12 16 18 -4 6 2 17 12 25 19 14 19 14 0 29 -11 8 -17 15
-13 15 4 1 12 3 17 4 6 1 13 3 18 4 11 2 8 81 -5 89 -8 5 -7 11 3 19 8 8 15 9
19 3 11 -17 26 1 19 22 -4 14 -2 18 5 14 7 -4 11 0 11 11 0 11 6 28 14 38 15
21 3 61 -15 50 -5 -4 -9 -1 -9 5 0 6 -5 8 -10 5 -6 -4 -8 -10 -5 -15 3 -5 1
-11 -3 -14 -5 -3 -9 7 -8 22 1 20 -4 27 -19 28 -40 2 -46 4 -40 14 4 6 -1 7
-11 3 -12 -4 -15 -3 -10 5 6 9 1 9 -18 1 -22 -10 -23 -14 -10 -26 8 -8 14 -17
14 -21 0 -15 -38 35 -44 58 -6 22 -6 23 7 8 7 -9 18 -13 25 -9 12 7 -66 51
-92 51 -8 0 -16 4 -18 10 -1 5 -20 16 -40 25 -29 12 -38 12 -38 3 -1 -8 -7 -5
-15 6 -8 11 -15 16 -15 10 0 -5 -4 -3 -9 4 -4 7 -17 14 -29 15 -12 0 -24 8
-27 15 -4 12 -8 12 -20 2 -13 -11 -14 -10 -10 2 4 9 -4 19 -20 26 l-25 12 41
82 c138 275 353 524 631 729 73 54 244 159 259 159 5 0 23 7 40 15 20 11 28
12 27 3 -2 -7 10 -12 30 -13 42 -3 50 -11 29 -32 -15 -15 -16 -14 -10 8 6 21
5 23 -10 10 -14 -11 -17 -11 -17 0 0 12 -2 12 -9 1 -7 -11 -11 -10 -24 2 -12
12 -18 13 -23 4 -4 -7 -2 -14 6 -16 9 -3 6 -10 -11 -23 -17 -13 -20 -19 -8
-19 8 0 20 5 27 12 15 15 15 3 1 -24 -9 -16 -7 -24 6 -37 16 -14 17 -14 12 0
-3 9 -1 22 4 30 6 9 8 0 7 -28 -2 -22 -6 -39 -9 -37 -4 2 -9 -2 -12 -9 -6 -16
41 -79 53 -72 5 3 7 -4 5 -15 -5 -26 30 -88 39 -68 3 7 4 3 2 -10 -3 -16 0
-22 11 -20 9 2 18 -4 20 -12 4 -13 3 -13 -6 0 -9 13 -11 13 -11 -2 0 -9 5 -20
10 -23 6 -4 8 -10 5 -15 -3 -5 0 -12 6 -16 8 -4 9 -3 5 4 -5 8 -2 10 9 6 12
-5 13 -9 4 -21 -9 -11 -9 -17 1 -26 9 -9 11 -9 6 0 -3 6 -2 14 4 18 6 4 10 -7
10 -25 0 -25 4 -31 16 -26 8 3 13 2 11 -2 -3 -4 4 -16 15 -27 19 -20 19 -20
12 0 -7 18 -6 19 11 5 17 -14 18 -13 12 4 -7 17 -6 17 10 5 11 -9 14 -10 9 -1
-5 8 0 12 13 12 12 0 21 6 21 13 0 9 3 8 9 -2 7 -11 11 -9 21 8 8 15 19 21 38
20 47 -4 64 0 56 13 -5 8 0 9 14 6 12 -4 22 -2 22 2 0 4 10 6 22 2 16 -4 19
-2 13 8 -6 10 -4 12 8 7 10 -3 17 -2 17 4 0 5 11 7 25 3 29 -7 30 2 14 96 -5
30 -11 71 -13 90 -3 19 -10 36 -16 38 -7 3 -7 9 2 20 11 13 11 14 -1 7 -11 -6
-13 -4 -8 8 3 9 2 19 -3 22 -6 4 -10 13 -10 21 0 8 4 12 10 9 7 -4 7 2 1 18
-5 14 -8 33 -5 43 3 11 -2 62 -9 114 -8 52 -12 99 -10 104 5 7 102 0 111 -9z"/>
<path d="M2964 4286 c-15 -12 -17 -19 -8 -32 15 -25 34 -29 34 -7 1 16 3 15
20 -6 25 -29 16 -44 -21 -36 -18 4 -36 2 -44 -5 -17 -14 -20 -61 -6 -75 6 -6
25 -55 44 -110 l34 -100 109 0 109 0 29 80 c15 44 37 100 48 123 28 60 15 91
-39 92 -21 0 -74 3 -118 6 -77 5 -81 6 -117 45 -41 44 -46 45 -74 25z m99
-206 c46 -25 73 -25 128 0 67 30 69 28 44 -52 l-23 -73 -85 -3 -85 -3 -21 70
c-12 38 -21 72 -21 75 0 12 26 6 63 -14z"/>
<path d="M1378 4000 c-48 -26 -80 -72 -86 -126 l-5 -44 177 0 176 0 0 39 c0
42 -29 92 -73 125 -40 29 -140 33 -189 6z m160 -34 c15 -8 35 -28 45 -45 l18
-31 -136 0 -136 0 16 30 c8 16 28 36 43 44 35 19 115 20 150 2z"/>
<path d="M3524 3986 c-17 -8 -44 -30 -59 -51 -26 -34 -28 -43 -29 -134 -1
-134 -5 -131 155 -131 169 0 170 1 167 134 -3 105 -15 131 -78 174 -38 26
-107 29 -156 8z"/>
<path d="M2455 3833 c-47 -3 -215 -23 -215 -27 0 0 20 -95 45 -211 25 -115 45
-214 45 -218 0 -5 12 -6 28 -3 15 2 48 8 75 11 l47 6 0 85 0 84 45 0 45 0 0
-85 0 -84 35 -6 c19 -3 50 -7 69 -10 27 -5 36 -2 40 12 7 25 86 402 86 412 0
17 -234 40 -345 34z"/>
<path d="M1295 3783 c9 -39 73 -102 116 -115 76 -22 171 12 209 74 41 68 40
68 -156 68 l-176 0 7 -27z"/>
<path d="M2045 3745 c-117 -44 -266 -124 -345 -186 -44 -34 -80 -65 -80 -69 0
-4 26 -34 58 -67 31 -33 95 -101 141 -151 46 -51 89 -92 94 -92 9 0 117 70
117 76 0 1 -18 32 -40 68 -22 36 -40 69 -40 74 0 7 52 42 64 42 3 0 24 -31 47
-70 23 -38 44 -70 47 -70 4 0 33 10 65 23 53 20 58 24 53 47 -11 48 -112 389
-117 394 -2 2 -31 -6 -64 -19z"/>
<path d="M2925 3748 c-21 -64 -105 -375 -105 -389 0 -12 18 -26 56 -43 31 -14
58 -26 59 -26 2 0 22 33 45 73 24 39 44 73 45 75 1 2 19 -7 39 -19 l36 -21
-19 -32 c-52 -85 -61 -102 -61 -111 0 -6 24 -27 54 -47 l53 -36 152 159 152
158 -58 46 c-81 65 -175 119 -302 176 -115 51 -139 57 -146 37z"/>
<path d="M1105 3622 c-12 -8 -138 -184 -172 -240 -47 -77 -36 -82 131 -57 54
8 115 12 135 9 76 -12 89 47 37 162 -25 54 -90 134 -110 134 -6 0 -16 -4 -21
-8z"/>
<path d="M3804 3547 c-2 -7 -3 -62 -2 -123 l3 -109 160 0 160 0 0 120 0 120
-158 3 c-124 2 -159 0 -163 -11z m239 -26 l47 -1 0 -85 0 -86 -28 21 c-23 17
-33 19 -54 11 -14 -5 -29 -15 -33 -20 -3 -6 -35 -11 -71 -11 l-64 0 0 83 c0
46 2 86 4 88 4 4 42 4 199 0z"/>
<path d="M1449 3320 c-72 -91 -162 -241 -151 -251 4 -4 29 -19 56 -33 47 -25
50 -25 69 -9 18 17 24 15 149 -51 71 -37 131 -66 132 -64 1 1 13 21 27 43 13
22 43 63 66 92 l42 52 -132 123 c-73 68 -143 135 -155 151 -13 15 -27 27 -32
27 -4 0 -36 -36 -71 -80z"/>
<path d="M3365 3245 l-160 -153 32 -39 c18 -21 49 -62 69 -91 l36 -53 86 48
c164 89 180 95 201 69 10 -12 19 -10 61 10 26 13 51 28 55 33 11 18 -107 203
-182 288 l-38 42 -160 -154z"/>
<path d="M2505 3030 c-25 -10 -155 -144 -155 -160 0 -30 22 -50 55 -50 l35 0
0 -65 c0 -39 -4 -65 -11 -65 -20 0 -76 -50 -95 -85 -10 -19 -23 -35 -29 -36
-5 0 -75 0 -155 0 -143 0 -145 1 -148 23 -10 65 -50 63 -132 -8 -75 -65 -83
-77 -75 -103 8 -26 139 -131 162 -131 26 0 43 19 43 47 l0 23 160 0 c137 0
160 -2 160 -15 0 -20 76 -102 101 -110 18 -6 19 -18 19 -159 0 -140 2 -156 21
-180 25 -32 75 -35 110 -7 23 19 24 25 27 180 l3 161 28 15 c33 16 77 65 86
95 6 19 15 20 160 20 l154 0 3 -26 c4 -33 27 -49 59 -41 34 9 149 119 149 142
0 30 -127 145 -159 145 -33 0 -51 -17 -51 -46 0 -22 -3 -23 -122 -26 -175 -4
-179 -3 -207 41 -13 21 -41 49 -62 62 -38 24 -38 25 -39 87 l0 62 29 0 c31 0
61 22 61 45 0 18 -114 146 -143 161 -12 7 -31 8 -42 4z m73 -483 c32 -30 31
-89 -4 -116 -36 -28 -79 -27 -109 4 -33 32 -34 84 -2 112 41 38 73 38 115 0z"/>
<path d="M1256 2993 c-28 -56 -77 -227 -92 -325 -15 -92 -17 -319 -4 -331 3
-2 103 8 223 22 l217 26 0 96 0 96 -61 7 c-108 11 -109 11 -109 -29 0 -39 -21
-47 -56 -20 -25 19 -34 19 -34 0 0 -8 -7 -15 -15 -15 -10 0 -15 11 -15 35 0
26 4 35 17 35 14 0 13 3 -5 16 -26 18 -30 65 -6 84 12 11 39 9 151 -13 75 -15
140 -24 144 -21 5 3 9 14 9 24 0 11 11 50 25 87 13 37 23 68 22 69 -1 1 -69
32 -152 69 -82 37 -171 78 -197 91 l-47 24 -15 -27z"/>
<path d="M3730 3000 c-19 -10 -107 -51 -196 -90 l-161 -72 18 -51 c10 -29 23
-71 29 -95 10 -40 13 -43 38 -38 248 49 264 51 278 31 16 -21 18 -44 6 -63 -7
-11 -210 -41 -279 -42 -22 0 -23 -3 -23 -98 l0 -97 218 -26 c119 -14 219 -24
222 -22 3 3 7 59 8 126 5 176 -35 394 -98 530 -15 32 -15 32 -60 7z"/>
<path d="M768 2603 c-14 -21 -35 -59 -48 -83 -12 -25 -41 -74 -64 -110 -53
-81 -57 -94 -43 -114 11 -14 29 -12 192 22 99 20 186 41 194 46 9 6 12 24 9
62 -8 96 -94 200 -175 211 -36 5 -41 3 -65 -34z m59 -63 c18 -10 44 -36 57
-57 26 -39 45 -103 31 -103 -9 0 -235 -49 -252 -55 -20 -7 -16 6 20 63 17 28
47 79 66 112 19 33 37 60 40 60 3 0 20 -9 38 -20z"/>
<path d="M4122 2580 c-57 -27 -63 -32 -60 -57 2 -20 9 -29 26 -31 15 -2 22 -9
18 -17 -8 -22 21 -40 39 -25 8 7 15 19 15 26 0 8 2 14 5 14 12 0 201 -72 209
-80 20 -20 -2 -17 -88 11 -85 28 -89 28 -123 12 -29 -13 -41 -14 -67 -5 -42
15 -46 15 -46 -4 0 -8 16 -22 36 -30 33 -14 40 -14 76 1 39 15 44 15 122 -11
85 -28 105 -39 92 -51 -4 -4 -45 6 -92 22 -83 29 -85 29 -130 12 -33 -12 -51
-14 -64 -7 -40 21 -57 -3 -22 -32 41 -35 110 -50 211 -46 135 4 141 10 141
133 0 75 -3 95 -17 108 -13 11 -201 87 -217 87 0 0 -29 -13 -64 -30z"/>
<path d="M1369 2262 l-197 -35 24 -90 c44 -164 144 -365 243 -490 32 -39 64
-77 72 -84 11 -9 44 17 173 141 l159 152 -56 73 c-31 40 -58 78 -60 85 -3 7
-57 -16 -140 -59 -135 -69 -136 -69 -157 -50 -13 12 -20 28 -18 44 3 21 21 33
128 83 69 32 128 59 133 60 4 2 -6 41 -23 88 -16 47 -30 93 -30 103 0 23 -15
22 -251 -21z"/>
<path d="M3420 2258 c-6 -24 -21 -69 -32 -101 -12 -31 -18 -60 -15 -64 4 -3
64 -32 134 -64 76 -34 129 -65 131 -74 5 -21 -25 -65 -43 -65 -8 0 -69 29
-137 65 -67 36 -124 65 -127 65 -3 -1 -32 -36 -64 -80 -68 -92 -68 -90 20
-167 32 -28 98 -90 147 -139 l89 -88 39 45 c92 105 200 293 252 439 30 81 57
200 47 200 -3 0 -98 16 -210 35 -112 19 -208 35 -212 35 -5 0 -13 -19 -19 -42z"/>
<path d="M4215 1988 c-39 -21 -40 -21 -112 -3 -67 17 -73 17 -97 1 -23 -14
-26 -24 -26 -69 0 -28 4 -57 8 -64 15 -24 60 -30 191 -28 133 2 135 3 158 29
40 47 28 113 -27 141 -37 19 -47 19 -95 -7z m93 -30 c19 -19 14 -63 -9 -83
-17 -16 -24 -17 -51 -7 -21 8 -37 8 -49 1 -20 -10 -65 -3 -87 14 -9 7 -20 6
-36 -2 -13 -7 -32 -11 -42 -9 -18 5 -18 5 1 13 35 14 53 35 48 56 -9 31 21 13
34 -21 17 -44 51 -40 92 10 33 42 74 53 99 28z"/>
<path d="M1861 1718 c-32 -35 -72 -79 -89 -98 -17 -19 -57 -64 -90 -100 -34
-35 -58 -68 -56 -72 10 -16 202 -137 279 -175 88 -44 203 -89 210 -81 4 4 100
351 112 404 4 17 -4 24 -47 42 -29 12 -56 22 -61 22 -5 0 -27 -29 -50 -65 -22
-36 -46 -65 -52 -65 -7 0 -23 9 -36 19 l-23 18 20 39 c12 21 30 52 41 68 l19
29 -51 38 c-28 22 -55 39 -59 39 -5 0 -34 -28 -67 -62z"/>
<path d="M3062 1744 l-51 -36 16 -32 c9 -17 27 -48 40 -69 14 -22 23 -40 21
-41 -32 -21 -58 -36 -62 -36 -3 0 -24 29 -47 65 -23 36 -47 65 -53 65 -14 0
-103 -34 -111 -42 -4 -4 16 -87 45 -185 78 -269 67 -244 98 -237 105 25 462
230 462 265 0 10 -290 319 -300 319 -3 0 -29 -16 -58 -36z"/>
<path d="M1095 1646 c-78 -34 -184 -194 -170 -256 14 -64 87 -76 139 -23 14
13 30 22 36 18 7 -4 24 2 39 13 15 11 55 34 88 51 90 45 109 80 77 142 -29 57
-139 86 -209 55z m133 -32 c30 -8 28 -19 -7 -34 -16 -6 -37 -20 -46 -30 -10
-11 -30 -22 -46 -25 -16 -4 -32 -13 -36 -20 -7 -11 -101 -55 -119 -55 -14 0
48 88 90 126 42 39 54 44 95 44 25 0 56 -3 69 -6z"/>
<path d="M3863 1621 c-48 -12 -82 -38 -89 -67 -11 -45 3 -97 36 -126 29 -27
35 -28 133 -28 139 0 177 24 177 111 0 62 -6 77 -41 95 -34 17 -170 27 -216
15z"/>
<path d="M2335 1577 c-11 -35 -86 -419 -83 -423 10 -10 161 -23 263 -24 108 0
273 14 283 25 3 3 -14 101 -39 218 l-44 212 -50 -3 c-98 -5 -95 -2 -95 -92 l0
-80 -45 0 -45 0 0 80 c0 89 6 83 -93 94 -33 4 -49 2 -52 -7z"/>
<path d="M1380 1261 c-48 -27 -82 -81 -88 -141 -6 -62 12 -106 49 -125 37 -20
197 -20 244 -1 44 19 55 42 55 114 0 65 -21 108 -73 146 -39 29 -140 33 -187
7z m160 -36 c25 -13 60 -60 60 -80 0 -3 -61 -5 -135 -5 l-135 0 16 33 c9 19
28 41 43 50 33 21 113 22 151 2z"/>
<path d="M3468 1254 l-28 -15 0 -124 c0 -157 -2 -155 157 -155 145 0 153 6
154 118 0 42 2 86 5 97 6 31 -14 71 -42 84 -37 17 -213 13 -246 -5z"/>
<path d="M1937 1073 c-4 -3 -7 -19 -7 -35 0 -15 -5 -28 -10 -28 -6 0 -18 -13
-29 -30 -21 -35 -35 -30 -19 6 8 18 8 28 1 35 -16 16 -30 4 -43 -37 -16 -47
-1 -64 58 -64 31 0 49 5 58 18 13 16 13 16 14 0 0 -15 9 -18 48 -18 51 0 72
12 72 43 0 21 -30 77 -41 77 -14 0 -19 -32 -8 -52 8 -14 8 -23 0 -31 -8 -8
-11 -6 -11 6 0 9 -11 24 -26 33 -14 10 -23 23 -20 31 11 27 -19 64 -37 46z"/>
<path d="M3023 1039 c-9 -9 -8 -18 4 -36 9 -13 14 -25 12 -27 -2 -1 -21 -13
-42 -25 -163 -98 2 -327 173 -239 60 31 93 92 87 161 -3 40 -11 56 -40 85 -30
30 -44 36 -90 40 -46 4 -57 8 -66 28 -12 27 -21 30 -38 13z m176 -113 l23 -24
-22 -7 c-13 -4 -23 -18 -27 -36 -14 -71 -97 -90 -160 -37 -21 18 -40 34 -42
35 -14 10 24 25 68 27 43 1 56 6 83 34 39 38 48 39 77 8z"/>
<path d="M2460 938 c-13 -7 -31 -27 -39 -43 -8 -17 -20 -42 -28 -57 -17 -33
-8 -73 20 -93 21 -15 21 -15 -5 -15 -29 0 -58 -32 -58 -63 0 -24 44 -67 70
-67 29 0 63 37 57 62 -8 31 3 48 30 48 42 0 62 -17 61 -51 -1 -34 22 -59 54
-59 24 0 68 44 68 67 0 31 -29 63 -58 63 l-27 0 22 18 c30 23 40 68 20 90 -9
9 -18 29 -22 44 -4 14 -15 34 -26 44 -24 22 -106 29 -139 12z m118 -46 c7 -9
12 -29 9 -44 -3 -22 1 -28 15 -28 27 0 22 -29 -7 -40 -14 -5 -25 -14 -25 -20
0 -16 -87 -12 -93 4 -3 8 -16 16 -29 18 -28 4 -38 38 -10 38 15 0 18 6 14 29
-8 59 89 93 126 43z"/>
<path d="M1787 903 c-9 -15 12 -52 38 -69 30 -19 151 -31 210 -20 43 8 85 46
85 76 0 19 -5 20 -164 20 -91 0 -167 -3 -169 -7z"/>
<path d="M732 4448 c-5 -7 -19 -32 -31 -55 -22 -44 -28 -48 -103 -58 -61 -8
-63 -27 -7 -80 l40 -40 -6 -67 c-8 -80 -2 -84 75 -42 l47 26 53 -27 c73 -37
82 -31 74 52 l-6 68 41 39 c58 54 56 57 -66 82 -13 2 -33 25 -53 59 -33 57
-41 63 -58 43z"/>
<path d="M4221 4406 c-44 -47 -51 -60 -51 -95 0 -33 -8 -50 -45 -95 -25 -31
-45 -63 -45 -71 0 -32 31 -13 82 50 32 40 59 65 71 65 21 0 127 106 127 128 0
19 -12 14 -47 -20 -39 -37 -44 -23 -8 20 29 34 31 42 11 42 -8 0 -24 -12 -35
-27 -12 -14 -24 -23 -27 -20 -4 3 3 18 15 33 11 15 21 31 21 35 0 19 -20 6
-69 -45z"/>
<path d="M4365 4309 c-46 -40 -75 -73 -85 -99 -9 -22 -34 -54 -60 -75 -50 -41
-61 -55 -54 -67 11 -17 34 -6 83 38 44 40 56 45 81 40 43 -8 67 4 139 73 42
40 62 65 58 76 -9 22 -20 19 -52 -15 -33 -34 -47 -37 -66 -14 -12 14 -8 20 24
46 20 17 37 36 37 44 0 28 -36 11 -105 -47z"/>
<path d="M4418 979 c-12 -7 -18 -22 -18 -48 l0 -37 -58 4 c-70 5 -127 -20
-162 -69 -26 -36 -40 -119 -20 -119 10 0 11 -17 6 -73 -10 -108 -6 -111 139
-115 64 -2 127 -1 141 2 32 8 61 63 45 88 -14 22 -15 98 -1 98 29 0 0 110 -39
144 -13 12 -21 31 -21 53 0 27 5 35 26 43 22 9 24 13 14 25 -14 17 -28 18 -52
4z m-11 -139 c33 -19 70 -77 58 -88 -4 -4 -66 -7 -138 -7 l-132 0 3 25 c1 14
18 40 37 58 30 28 42 32 87 32 35 0 64 -7 85 -20z m-169 -142 c9 -9 15 -9 24
0 15 15 115 16 120 1 3 -9 9 -9 25 0 35 18 43 13 43 -29 l0 -40 -120 1 -120 2
0 39 c0 39 7 47 28 26z"/>
<path d="M624 893 c-37 -7 -69 -50 -69 -94 0 -55 31 -83 89 -84 24 0 48 -3 51
-7 4 -4 -4 -21 -19 -38 -35 -42 -34 -83 3 -121 33 -32 67 -37 110 -14 49 25
58 96 17 137 -32 31 -22 44 33 44 35 0 48 5 67 27 61 71 -3 169 -93 145 -32
-8 -63 -49 -63 -83 0 -8 -4 -15 -10 -15 -5 0 -10 13 -10 28 0 47 -54 85 -106
75z"/>
</g>
</svg>
