<svg width="18" height="18" viewBox="0 0 18 18" fill="none" xmlns="http://www.w3.org/2000/svg">
<rect width="18" height="18" fill="none"/>
<path d="M15.6676 3.11229L2.42015 6.95374C1.69755 7.19382 1.93843 7.67399 2.90188 7.4339L6.99654 6.47354L7.47827 17.294C7.47827 18.2544 8.1389 18.2214 8.20085 17.2776C8.30622 15.6724 8.74453 12.4923 8.74453 12.4923C8.74453 12.4923 9.40516 12.7159 10.3686 12.2357C11.4123 11.5954 12.44 10.411 13.0181 9.83481C13.4998 9.35461 13.259 9.11452 12.7772 9.35461L10.3686 10.7951C9.40516 11.2753 9.22587 11.0352 9.22587 10.315L9.46673 6.71363L15.9084 4.07265C16.631 3.83256 17.3536 2.63212 15.6676 3.11229Z" fill="black"/>
<g clip-path="url(#clip0_647_152)">
<path d="M7.43062 4.93312L6.8185 3.69203L5.44899 3.49236C5.20339 3.45674 5.10497 3.15397 5.28307 2.98055L6.27388 2.01505L6.03954 0.651154C5.99736 0.404622 6.25701 0.219957 6.47448 0.335255L7.69965 0.979238L8.92481 0.335255C9.14228 0.220894 9.40194 0.404622 9.35975 0.651154L9.12541 2.01505L10.1162 2.98055C10.2943 3.15397 10.1959 3.45674 9.95031 3.49236L8.58079 3.69203L7.96868 4.93312C7.859 5.15435 7.54123 5.15716 7.43062 4.93312Z" fill="black"/>
</g>
<defs>
<clipPath id="clip0_647_152">
<rect width="5.4" height="5.4" fill="white" transform="matrix(1 0 0 -1 5 5.39999)"/>
</clipPath>
</defs>
</svg>
